<svg width="36" height="36" viewBox="0 0 36 36" fill="none" xmlns="http://www.w3.org/2000/svg">
<g clip-path="url(#clip0_0_4763)">
<path d="M18 6.10352e-05C8.05875 6.10352e-05 0 8.05881 0 18.0001C0 27.9413 8.05875 36.0001 18 36.0001C27.9412 36.0001 36 27.9413 36 18.0001C36 8.05881 27.9412 6.10352e-05 18 6.10352e-05ZM24.9225 20.3082C24.9225 20.3082 26.5144 21.8794 26.9062 22.6088C26.9175 22.6238 26.9231 22.6388 26.9269 22.6463C27.0862 22.9144 27.1237 23.1226 27.045 23.2782C26.9137 23.5369 26.4637 23.6644 26.31 23.6757H23.4975C23.3025 23.6757 22.8937 23.6251 22.3987 23.2838C22.0181 23.0176 21.6431 22.5807 21.2775 22.1551C20.7319 21.5213 20.2594 20.9738 19.7831 20.9738C19.7226 20.9737 19.6625 20.9832 19.605 21.0019C19.245 21.1182 18.7838 21.6319 18.7838 23.0007C18.7838 23.4282 18.4462 23.6738 18.2081 23.6738H16.92C16.4812 23.6738 14.1956 23.5201 12.1706 21.3844C9.69187 18.7688 7.46062 13.5226 7.44187 13.4738C7.30125 13.1344 7.59187 12.9526 7.90875 12.9526H10.7494C11.1281 12.9526 11.2519 13.1832 11.3381 13.3876C11.4394 13.6257 11.8106 14.5726 12.42 15.6376C13.4081 17.3738 14.0138 18.0788 14.4994 18.0788C14.5904 18.0777 14.6799 18.0546 14.76 18.0113C15.3937 17.6588 15.2756 15.3994 15.2475 14.9307C15.2475 14.8426 15.2456 13.9201 14.9212 13.4776C14.6887 13.1569 14.2931 13.0351 14.0531 12.9901C14.1503 12.856 14.2782 12.7473 14.4262 12.6732C14.8612 12.4557 15.645 12.4238 16.4231 12.4238H16.8563C17.7 12.4351 17.9175 12.4894 18.2231 12.5663C18.8419 12.7144 18.855 13.1138 18.8006 14.4807C18.7838 14.8688 18.7669 15.3076 18.7669 15.8251C18.7669 15.9376 18.7612 16.0576 18.7612 16.1851C18.7425 16.8807 18.72 17.6701 19.2112 17.9944C19.2753 18.0346 19.3494 18.056 19.425 18.0563C19.5956 18.0563 20.1094 18.0563 21.5006 15.6694C21.9297 14.9012 22.3025 14.1028 22.6162 13.2807C22.6444 13.2319 22.7269 13.0819 22.8244 13.0238C22.8963 12.9871 22.9761 12.9685 23.0569 12.9694H26.3962C26.76 12.9694 27.0094 13.0238 27.0562 13.1644C27.1387 13.3876 27.0412 14.0682 25.5169 16.1326L24.8362 17.0307C23.4544 18.8419 23.4544 18.9338 24.9225 20.3082Z" fill="#FF7020"/>
</g>
<defs>
<clipPath id="clip0_0_4763">
<rect width="36" height="36" fill="white"/>
</clipPath>
</defs>
</svg>
